<svg xmlns="http://www.w3.org/2000/svg" xmlns:xlink="http://www.w3.org/1999/xlink" viewBox="0 0 483.31 588.38"><defs><style>.cls-1{fill:url(#linear-gradient);}</style><linearGradient id="linear-gradient" x1="59.65" y1="609.43" x2="423.66" y2="-21.05" gradientUnits="userSpaceOnUse"><stop offset="0" stop-color="#439cfb"/><stop offset="1" stop-color="#f187fb"/></linearGradient></defs><g id="Layer_2" data-name="Layer 2"><g id="Layer_2-2" data-name="Layer 2"><g id="Icon"><path class="cls-1" d="M451.79,588.38H32.44c-9.78,0-19.34-4.07-25.45-11.71a31.54,31.54,0,0,1-.08-39.5L386.21,63H97.1l55.49,69.36a63,63,0,0,1-9.85,88.6h0L7.48,51.92C1.42,44.35-1.39,34.45.67,25A31.56,31.56,0,0,1,31.52,0H450.87c9.78,0,19.34,4.06,25.45,11.7a31.55,31.55,0,0,1,.08,39.51L97.1,525.34H386.21L330.73,456a63,63,0,0,1,9.84-88.6h0L475.83,536.45c6.06,7.58,8.87,17.47,6.81,26.95A31.56,31.56,0,0,1,451.79,588.38Z"/></g></g></g></svg>